<svg width="88" height="25" viewBox="0 0 88 25" xmlns="http://www.w3.org/2000/svg">
    <path fill="#02a9e6" d="M48.5 0H51v25h-2.5V0z"/>
    <path fill="#fff" d="M10.9 16.5c0 1.3-.5 2.3-1.5 3s-2.3 1-4.1 1-3.3-.3-4.3-.9v-2c.7.3 1.4.6 2.2.8s1.5.3 2.2.3c1.1 0 1.9-.2 2.5-.5.6-.4.9-.9.9-1.6 0-.5-.2-1.1-.7-1.4-.5-.4-1.4-.8-2.8-1.4-1.2-.4-2.2-.9-2.7-1.2-.5-.4-1-.8-1.2-1.2-.3-.5-.4-1.1-.4-1.7 0-1.1.5-2 1.4-2.7s2.2-1 3.8-1c1.5 0 3 .3 4.4.9l-.8 1.8c-1.2-.5-2.5-.9-3.8-.9-1 0-1.8.2-2.3.5-.5.3-.7.7-.7 1.3 0 .4.1.7.3 1 .2.3.5.5.9.8.4.2 1.2.6 2.4 1 1.7.6 2.8 1.2 3.3 1.8.7.5 1 1.3 1 2.3zm5.5-10.4v9.3c0 1.1.3 2 .8 2.5.5.6 1.3.8 2.4.8 1.5 0 2.5-.4 3.2-1.2.7-.8 1-2.2 1-4V6.1h2.1v14.2h-1.8l-.3-1.9h-.1c-.4.7-1 1.2-1.8 1.6s-1.6.5-2.6.5c-1.7 0-3-.4-3.8-1.2-.8-.8-1.3-2.1-1.3-3.9V6.1h2.2zm56.5-3.8c0-.5.1-.8.4-1.1.2-.2.5-.3.9-.3.3 0 .6.1.9.3.2.2.4.6.4 1.1s-.1.8-.4 1.1c-.2.2-.5.3-.9.3s-.7-.1-.9-.3c-.3-.3-.4-.6-.4-1.1zm2.3 18.1h-2.1V6.1h2.1v14.3zm10.3-1.7c.4 0 .7 0 1.1-.1.3-.1.6-.1.8-.2V20c-.2.1-.6.2-1 .3-.4.1-.8.1-1.2.1-2.7 0-4-1.4-4-4.3V7.7h-2v-1l2-.9.8-2.9h1.2v3.2h4v1.6h-4v8.4c0 .8.2 1.5.6 1.9.4.5 1 .7 1.7.7zM67.2 7.1c-.8-.8-2-1.2-3.5-1.2-1 0-1.9.2-2.7.6s-1.4 1-1.8 1.7h-.1c-.7-1.5-2.2-2.3-4.4-2.3-.4 0-.8 0-1.2.1v1.7c.3 0 .6-.1.9-.1 1 0 1.7.3 2.2.8.5.6.7 1.4.7 2.5v9.6h2.1v-8.3c0-1.6.3-2.7.9-3.5.6-.8 1.6-1.1 2.9-1.1 1 0 1.7.3 2.2.8.5.6.7 1.4.7 2.5v9.6h2.1v-9.6c.1-1.7-.2-2.9-1-3.8zM45.7 5.9c-.9 0-1.6.2-2.3.6-.8.4-1.4 1-1.8 1.7h-.1c-.7-1.5-2.2-2.3-4.3-2.3-1.7 0-3.2.8-4.1 2.2H33l-.3-1.9H31v14.3h2.1v-7.8c0-1.8.3-3.1.9-3.8.6-.8 1.6-1.2 2.9-1.2 1 0 1.7.3 2.2.8.5.6.7 1.4.7 2.5v9.5h2.1v-8.2c0-1.6.3-2.7.9-3.4.6-.7 1.6-1.1 2.9-1.1V5.9z"/>
</svg>
