<svg xmlns="http://www.w3.org/2000/svg" viewBox="0 0 180 180" width="180" height="180" fill="none">
  <!-- Solid navy background (iOS Home Screen looks better with full-bleed color, no rounding) -->
  <rect width="180" height="180" fill="#1a3252"/>

  <!-- Monster scaled up to ~110px tall, centered horizontally + vertically -->
  <g transform="translate(45, 30) scale(2.25)">
    <ellipse cx="13" cy="7" rx="3.5" ry="6" fill="#02a9e6" transform="rotate(-18 13 7)"/>
    <ellipse cx="27" cy="7" rx="3.5" ry="6" fill="#02a9e6" transform="rotate(18 27 7)"/>
    <path d="M 6 38 C 2 38 1 33 1 27 L 1 19 C 1 10 5 6 11 5 C 13 2 16 0 20 0 C 24 0 27 2 29 5 C 35 6 39 10 39 19 L 39 27 C 39 33 38 38 34 38 Z" fill="#02a9e6"/>
    <ellipse cx="20" cy="26" rx="7" ry="9" fill="white" fill-opacity="0.15"/>
    <circle cx="14" cy="21" r="5.5" fill="white"/>
    <circle cx="15" cy="22" r="2.8" fill="#1a1a1a"/>
    <circle cx="16.5" cy="20.5" r="1" fill="white"/>
    <circle cx="26" cy="21" r="5.5" fill="white"/>
    <circle cx="27" cy="22" r="2.8" fill="#1a1a1a"/>
    <circle cx="28.5" cy="20.5" r="1" fill="white"/>
    <path d="M 13 31 Q 20 38 27 31" stroke="white" stroke-width="2" stroke-linecap="round" fill="none"/>
    <circle cx="20" cy="1.5" r="1.8" fill="#02a9e6"/>
    <ellipse cx="14" cy="41" rx="5.5" ry="3.5" fill="#02a9e6"/>
    <ellipse cx="26" cy="41" rx="5.5" ry="3.5" fill="#02a9e6"/>
  </g>
</svg>
